<?xml version="1.0" encoding="iso-8859-1"?>
<!-- Generator: Adobe Illustrator 19.0.0, SVG Export Plug-In . SVG Version: 6.00 Build 0)  -->
<svg version="1.1" id="Capa_1" xmlns="http://www.w3.org/2000/svg" xmlns:xlink="http://www.w3.org/1999/xlink" x="0px" y="0px"
	 viewBox="0 0 512 512" style="enable-background:new 0 0 512 512;" xml:space="preserve">
<g>
	<g>
		<path d="M253.15,27.571L151.253,0.269c-0.312-0.083-0.624-0.141-0.936-0.187c-0.079-0.011-0.158-0.018-0.237-0.027
			c-0.258-0.029-0.515-0.045-0.77-0.048C149.272,0.006,149.236,0,149.199,0c-0.021,0-0.041,0.005-0.062,0.005
			c-0.405,0.003-0.806,0.036-1.199,0.1c-0.046,0.008-0.091,0.019-0.138,0.027c-0.788,0.143-1.544,0.404-2.247,0.771
			c-0.049,0.026-0.099,0.049-0.148,0.076c-0.334,0.183-0.653,0.389-0.958,0.619c-0.043,0.032-0.084,0.066-0.126,0.099
			c-0.618,0.485-1.166,1.062-1.62,1.721c-0.028,0.039-0.057,0.078-0.084,0.12c-0.212,0.318-0.4,0.655-0.566,1.008
			c-0.029,0.063-0.055,0.126-0.083,0.189c-0.157,0.36-0.298,0.73-0.403,1.122c-0.001,0.003-0.003,0.006-0.004,0.009l-8.186,30.572
			c-1.129,4.22,1.372,8.566,5.591,9.694c0.664,0.179,1.36,0.264,2.046,0.264c3.576,0,6.719-2.404,7.637-5.865l6.148-22.93
			l86.614,23.207l-22.978,85.757h-92.83l14.861-55.463c0.549-2.036,0.264-4.166-0.791-6.002c-1.055-1.825-2.764-3.144-4.811-3.682
			c-0.664-0.179-1.361-0.274-2.046-0.274c-3.576,0-6.71,2.416-7.638,5.865l-17.314,64.62c-0.197,0.511-0.341,1.047-0.429,1.602
			l-9.558,35.673c-0.001,0.004-0.002,0.008-0.003,0.011c-4.188,15.646-2.036,31.986,6.063,46.013
			c6.766,11.72,17.015,20.638,29.326,25.706l-38.195,142.55l-33.087,19.101l-27.402-7.342c-4.216-1.134-8.559,1.373-9.69,5.594
			c-1.131,4.221,1.374,8.56,5.595,9.69l122.279,32.764c0.686,0.184,1.374,0.272,2.053,0.272c3.493,0,6.69-2.331,7.637-5.866
			c1.131-4.221-1.374-8.56-5.595-9.69l-27.401-7.342l-19.104-33.086l38.193-142.535c2.674,0.358,5.353,0.538,8.024,0.538
			c10.51,0,20.883-2.756,30.229-8.152c14.032-8.102,24.069-21.181,28.262-36.831c0.001-0.003,0.001-0.005,0.002-0.007
			l43.682-163.031C259.876,33.04,257.372,28.701,253.15,27.571z M83.597,408.077l15.369-8.872l8.874,15.369L83.597,408.077z
			 M199.774,196.21c-0.001,0.001-0.001,0.002-0.001,0.002c-3.101,11.563-10.518,21.228-20.886,27.214
			c-10.373,5.988-22.454,7.578-34.021,4.478c-11.568-3.1-21.237-10.518-27.224-20.889c-5.987-10.369-7.578-22.448-4.48-34.014
			c0.001-0.001,0.001-0.003,0.002-0.004l8.201-30.608h92.83L199.774,196.21z"/>
	</g>
</g>
<g>
	<g>
		<path d="M487.111,469.271c-1.131-4.221-5.469-6.729-9.69-5.594l-27.404,7.343l-33.084-19.103l-38.199-142.553
			c27.7-11.452,43.35-42.014,35.387-71.73c-0.002-0.005-0.004-0.011-0.005-0.017l-30.027-112.062
			c-0.928-3.46-4.072-5.865-7.638-5.865c-0.696,0-1.382,0.084-2.057,0.264c-2.036,0.548-3.745,1.856-4.8,3.692
			c-1.055,1.824-1.339,3.956-0.791,6.002l7.709,28.77h-92.828l-13.096-48.875l86.613-23.208l3.416,12.741
			c0.918,3.449,4.061,5.865,7.627,5.865c0.696,0,1.383-0.095,2.057-0.274c4.22-1.129,6.72-5.475,5.591-9.684l-5.454-20.381
			c-0.004-0.016-0.012-0.031-0.018-0.047c-0.102-0.374-0.236-0.729-0.386-1.076c-0.03-0.067-0.057-0.135-0.089-0.201
			c-0.166-0.352-0.354-0.689-0.566-1.008c-0.025-0.037-0.052-0.072-0.076-0.109c-0.462-0.67-1.019-1.257-1.648-1.747
			c-0.029-0.023-0.057-0.045-0.085-0.067c-0.317-0.24-0.65-0.456-0.998-0.646c-0.03-0.016-0.06-0.03-0.09-0.045
			c-0.724-0.383-1.506-0.653-2.323-0.797c-0.025-0.004-0.048-0.01-0.073-0.014c-0.41-0.068-0.827-0.102-1.249-0.104
			c-0.012,0-0.025-0.003-0.037-0.003c-0.023,0-0.044,0.004-0.067,0.004c-0.276,0.002-0.553,0.02-0.832,0.052
			c-0.073,0.008-0.145,0.014-0.217,0.025c-0.258,0.037-0.515,0.088-0.773,0.15c-0.056,0.013-0.112,0.019-0.168,0.033
			c-0.021,0.006-0.04,0.014-0.061,0.02L258.85,96.308c-4.22,1.13-6.725,5.469-5.595,9.69l43.687,163.044
			c0,0.002,0.001,0.003,0.002,0.005c7.257,27.061,31.824,44.954,58.601,44.954c2.62,0,5.261-0.173,7.909-0.523l38.194,142.536
			l-19.103,33.087l-27.404,7.343c-4.221,1.131-6.725,5.469-5.594,9.69c0.947,3.535,4.143,5.866,7.637,5.866
			c0.678,0,1.367-0.088,2.053-0.272l91.668-24.563c0.004-0.002,0.008-0.003,0.012-0.004l30.6-8.199
			C485.738,477.83,488.242,473.492,487.111,469.271z M312.224,264.937l-0.001-0.003l-24.3-90.69h92.829l18.084,67.491
			c0.001,0.006,0.004,0.011,0.006,0.016c6.383,23.873-7.837,48.494-31.708,54.891C343.255,303.042,318.624,288.818,312.224,264.937z
			 M404.161,483.307l8.874-15.368l15.367,8.873L404.161,483.307z"/>
	</g>
</g>
<g>
</g>
<g>
</g>
<g>
</g>
<g>
</g>
<g>
</g>
<g>
</g>
<g>
</g>
<g>
</g>
<g>
</g>
<g>
</g>
<g>
</g>
<g>
</g>
<g>
</g>
<g>
</g>
<g>
</g>
</svg>
