<?xml version="1.0" encoding="iso-8859-1"?>
<!-- Generator: Adobe Illustrator 19.0.0, SVG Export Plug-In . SVG Version: 6.00 Build 0)  -->
<svg version="1.1" id="Capa_1" xmlns="http://www.w3.org/2000/svg" xmlns:xlink="http://www.w3.org/1999/xlink" x="0px" y="0px"
	 viewBox="0 0 512 512" style="enable-background:new 0 0 512 512;" xml:space="preserve">
<g>
	<g>
		<path d="M73.539,80.511h-8.02v-8.02c0-4.027-3.264-7.291-7.291-7.291c-4.027,0-7.291,3.264-7.291,7.291v8.02h-8.02
			c-4.027,0-7.291,3.264-7.291,7.291s3.264,7.291,7.291,7.291h8.02v8.02c0,4.027,3.264,7.291,7.291,7.291
			c4.027,0,7.291-3.264,7.291-7.291v-8.02h8.02c4.027,0,7.291-3.264,7.291-7.291C80.83,83.775,77.565,80.511,73.539,80.511z"/>
	</g>
</g>
<g>
	<g>
		<path d="M469.085,80.511h-8.02v-8.02c0-4.027-3.264-7.291-7.291-7.291c-4.027,0-7.291,3.264-7.291,7.291v8.02h-8.02
			c-4.027,0-7.291,3.264-7.291,7.291s3.264,7.291,7.291,7.291h8.02v8.02c0,4.027,3.264,7.291,7.291,7.291s7.291-3.264,7.291-7.291
			v-8.02h8.02c4.027,0,7.291-3.264,7.291-7.291S473.111,80.511,469.085,80.511z"/>
	</g>
</g>
<g>
	<g>
		<path d="M271.312,29.619h-8.02v-8.02c0-4.027-3.264-7.291-7.291-7.291c-4.027,0-7.291,3.264-7.291,7.291v8.02h-8.02
			c-4.027,0-7.291,3.264-7.291,7.291c0,4.027,3.264,7.291,7.291,7.291h8.02v8.02c0,4.027,3.264,7.291,7.291,7.291
			c4.027,0,7.291-3.264,7.291-7.291v-8.02h8.02c4.027,0,7.291-3.264,7.291-7.291C278.603,32.883,275.338,29.619,271.312,29.619z"/>
	</g>
</g>
<g>
	<g>
		<path d="M243.309,159.905l-116.748-44.18c-8.339-3.154-17.554,0.518-21.437,8.542l-43.593,90.076
			c-2.724,5.629-4.819,11.492-6.286,17.483c-0.042,0.139-0.1,0.27-0.135,0.412c-3.466,14.336-3.18,28.804,0.24,42.327
			c0.029,0.114,0.056,0.229,0.085,0.343c0.171,0.666,0.345,1.33,0.532,1.991c0.239,0.855,0.492,1.708,0.758,2.557
			c0.11,0.349,0.224,0.696,0.338,1.043c0.581,1.781,1.212,3.549,1.909,5.298c0.114,0.286,0.247,0.563,0.364,0.847
			c0.257,0.624,0.527,1.241,0.798,1.858c0.319,0.73,0.636,1.46,0.975,2.179c0.206,0.438,0.429,0.868,0.643,1.303
			c1.345,2.741,2.825,5.4,4.435,7.971c0.324,0.519,0.644,1.04,0.979,1.553c0.395,0.602,0.804,1.193,1.213,1.785
			c0.428,0.622,0.861,1.24,1.305,1.851c0.363,0.497,0.731,0.99,1.104,1.479c0.552,0.726,1.116,1.442,1.69,2.152
			c0.299,0.369,0.596,0.739,0.901,1.103c0.752,0.9,1.526,1.783,2.314,2.654c0.152,0.168,0.3,0.34,0.453,0.507
			c4.04,4.394,8.548,8.397,13.472,11.937c0.078,0.056,0.157,0.111,0.236,0.167c1.11,0.793,2.241,1.561,3.393,2.305
			c0.174,0.113,0.349,0.225,0.525,0.336c1.054,0.67,2.125,1.319,3.212,1.947c0.25,0.145,0.499,0.291,0.75,0.434
			c1.019,0.575,2.054,1.128,3.101,1.666c0.309,0.159,0.613,0.324,0.924,0.479c0.248,0.124,0.504,0.235,0.754,0.356l-35.652,94.186
			c-1.449-0.546-3.033-0.632-4.534-0.244L7.251,440.89c-4.098,1.061-7.007,4.615-7.236,8.844c-0.23,4.228,2.277,8.077,6.238,9.577
			l99.754,37.749c1.127,0.426,2.292,0.632,3.442,0.632c2.892,0,5.692-1.302,7.572-3.677c2.628-3.321,2.803-7.909,0.434-11.42
			l-31.823-47.166c-0.868-1.287-2.114-2.273-3.565-2.822l35.635-94.166c7.733,2.135,15.685,3.198,23.628,3.198
			c13.779,0,27.526-3.195,40.039-9.522c22.156-11.202,38.699-31.338,45.388-55.247l26.964-96.37
			C256.123,171.915,251.647,163.061,243.309,159.905z M95.632,477.084l-68.378-25.876l36.531-9.472l10.74,4.064L95.632,477.084z
			 M239.266,176.455l-9.722,34.75l-94.221,8.603c-4.128,0.376-7.168,4.028-6.791,8.156s4.023,7.168,8.156,6.792l88.529-8.083
			l-12.913,46.153c-5.557,19.862-19.301,36.59-37.706,45.896c-18.406,9.306-40.027,10.456-59.316,3.156
			c-1.138-0.431-2.261-0.894-3.371-1.378c-0.278-0.121-0.549-0.252-0.825-0.377c-0.854-0.385-1.702-0.78-2.538-1.197
			c-0.261-0.13-0.519-0.265-0.778-0.398c-0.879-0.451-1.749-0.916-2.607-1.401c-0.18-0.101-0.359-0.203-0.538-0.305
			c-1.014-0.584-2.016-1.187-2.999-1.818c-0.013-0.008-0.027-0.016-0.04-0.025c-4.251-2.731-8.201-5.889-11.794-9.412
			c-0.04-0.04-0.081-0.079-0.122-0.119c-0.861-0.848-1.702-1.718-2.521-2.608c-0.029-0.032-0.06-0.063-0.089-0.095
			c-1.665-1.815-3.237-3.716-4.715-5.692c-0.153-0.206-0.299-0.417-0.451-0.624c-0.527-0.719-1.041-1.448-1.542-2.187
			c-0.244-0.361-0.483-0.726-0.721-1.092c-0.395-0.606-0.78-1.219-1.158-1.837c-0.252-0.413-0.505-0.826-0.749-1.244
			c-0.371-0.635-0.727-1.28-1.079-1.927c-0.208-0.383-0.425-0.761-0.626-1.147c-0.522-1.001-1.023-2.014-1.5-3.042
			c-0.131-0.282-0.249-0.569-0.377-0.853c-0.371-0.828-0.733-1.66-1.075-2.503c-0.12-0.296-0.234-0.596-0.351-0.894
			c-0.36-0.924-0.705-1.853-1.027-2.788c-0.056-0.163-0.114-0.326-0.169-0.49c-3.847-11.468-4.759-23.665-2.815-35.464l30.166-2.754
			c4.128-0.377,7.168-4.028,6.791-8.156c-0.377-4.129-4.034-7.177-8.156-6.792l-24.484,2.236c0.624-1.554,1.283-3.098,2.017-4.614
			l43.594-90.077c0.359-0.743,1.092-1.179,1.869-1.179c0.248,0,0.499,0.045,0.745,0.138l116.746,44.18
			C239.013,174.329,239.559,175.407,239.266,176.455z"/>
	</g>
</g>
<g>
	<g>
		<path d="M511.986,449.733c-0.229-4.227-3.136-7.781-7.235-8.844l-55.077-14.282c-1.5-0.388-3.087-0.303-4.54,0.245l-35.638-94.188
			c0.247-0.12,0.501-0.23,0.747-0.352c0.312-0.156,0.618-0.321,0.927-0.48c1.045-0.537,2.079-1.089,3.096-1.663
			c0.254-0.144,0.506-0.292,0.758-0.438c1.084-0.626,2.151-1.273,3.202-1.941c0.179-0.114,0.357-0.228,0.535-0.343
			c1.148-0.742,2.276-1.508,3.383-2.298c0.081-0.058,0.163-0.114,0.243-0.172c4.921-3.539,9.426-7.539,13.464-11.93
			c0.16-0.174,0.313-0.353,0.472-0.528c0.781-0.864,1.548-1.739,2.294-2.631c0.31-0.37,0.613-0.747,0.917-1.123
			c0.568-0.702,1.126-1.411,1.672-2.129c0.378-0.497,0.752-0.996,1.12-1.501c0.437-0.601,0.862-1.209,1.284-1.821
			c0.416-0.602,0.832-1.203,1.233-1.816c0.325-0.496,0.634-1.002,0.948-1.504c1.632-2.603,3.13-5.295,4.49-8.071
			c0.201-0.411,0.412-0.816,0.607-1.23c0.344-0.732,0.667-1.475,0.992-2.218c0.264-0.603,0.528-1.206,0.779-1.815
			c0.119-0.29,0.254-0.571,0.37-0.862c0.699-1.756,1.333-3.53,1.915-5.318c0.111-0.337,0.221-0.673,0.328-1.012
			c0.268-0.857,0.524-1.717,0.765-2.581c0.184-0.653,0.356-1.308,0.525-1.966c0.033-0.128,0.064-0.257,0.096-0.385
			c3.414-13.515,3.697-27.973,0.233-42.299c-0.034-0.142-0.093-0.273-0.135-0.412c-1.466-5.991-3.562-11.854-6.286-17.483
			l-43.593-90.075c-3.883-8.025-13.098-11.699-21.438-8.543l-116.747,44.18c-8.338,3.156-12.814,12.01-10.412,20.593l26.962,96.37
			c1.463,5.23,3.398,10.28,5.76,15.095c8.435,17.196,22.319,31.401,39.628,40.152c2.18,1.102,4.398,2.103,6.646,3.014
			c10.659,4.323,22.013,6.508,33.393,6.507c7.941,0,15.894-1.063,23.627-3.198l35.635,94.167c-1.452,0.549-2.697,1.535-3.565,2.822
			l-31.823,47.166c-2.368,3.51-2.194,8.099,0.434,11.42c1.88,2.376,4.681,3.677,7.572,3.677c1.15,0,2.315-0.206,3.442-0.632
			l99.756-37.75C509.71,457.81,512.216,453.962,511.986,449.733z M406.84,317.128c-0.858,0.485-1.728,0.95-2.607,1.401
			c-0.259,0.133-0.517,0.268-0.778,0.398c-0.836,0.416-1.684,0.812-2.538,1.197c-0.276,0.124-0.547,0.255-0.825,0.377
			c-1.111,0.485-2.233,0.948-3.371,1.378c-19.291,7.3-40.909,6.15-59.316-3.156c-18.406-9.306-32.149-26.035-37.706-45.896
			l-12.913-46.153l23.025,2.102c4.119,0.389,7.779-2.663,8.156-6.792c0.377-4.128-2.664-7.779-6.792-8.156l-28.716-2.622
			l-9.723-34.751c-0.293-1.047,0.253-2.125,1.27-2.51l116.746-44.18c1.015-0.385,2.141,0.063,2.615,1.043l43.593,90.076
			c0.734,1.516,1.393,3.06,2.017,4.614l-88.21-8.055c-4.134-0.378-7.779,2.664-8.156,6.792s2.663,7.778,6.791,8.156l93.892,8.574
			c1.943,11.799,1.031,23.996-2.815,35.464c-0.055,0.164-0.112,0.327-0.169,0.49c-0.321,0.935-0.667,1.864-1.027,2.788
			c-0.117,0.298-0.23,0.597-0.351,0.894c-0.341,0.843-0.703,1.676-1.075,2.503c-0.127,0.284-0.246,0.571-0.377,0.853
			c-0.477,1.027-0.978,2.041-1.5,3.042c-0.201,0.386-0.418,0.764-0.626,1.147c-0.352,0.647-0.708,1.292-1.079,1.927
			c-0.244,0.418-0.497,0.831-0.749,1.244c-0.378,0.618-0.763,1.231-1.158,1.837c-0.238,0.365-0.476,0.73-0.721,1.092
			c-0.501,0.739-1.015,1.467-1.542,2.187c-0.151,0.207-0.297,0.418-0.451,0.624c-1.478,1.976-3.05,3.877-4.715,5.692
			c-0.029,0.032-0.06,0.063-0.089,0.095c-0.819,0.89-1.659,1.759-2.521,2.608c-0.04,0.04-0.081,0.079-0.122,0.119
			c-3.593,3.523-7.544,6.681-11.794,9.412c-0.013,0.008-0.026,0.016-0.04,0.025c-0.983,0.631-1.985,1.234-2.999,1.818
			C407.199,316.925,407.019,317.026,406.84,317.128z M416.369,477.084l21.107-31.284l10.74-4.064l36.531,9.472L416.369,477.084z"/>
	</g>
</g>
<g>
</g>
<g>
</g>
<g>
</g>
<g>
</g>
<g>
</g>
<g>
</g>
<g>
</g>
<g>
</g>
<g>
</g>
<g>
</g>
<g>
</g>
<g>
</g>
<g>
</g>
<g>
</g>
<g>
</g>
</svg>
