<?xml version="1.0" encoding="iso-8859-1"?>
<!-- Generator: Adobe Illustrator 21.0.0, SVG Export Plug-In . SVG Version: 6.00 Build 0)  -->
<svg version="1.1" id="Layer_1" xmlns="http://www.w3.org/2000/svg" xmlns:xlink="http://www.w3.org/1999/xlink" x="0px" y="0px"
	 viewBox="-49 141 512 512" style="enable-background:new -49 141 512 512;" xml:space="preserve">
<path style="fill:#EE3840;" d="M405.848,339.848c0,159.225-179.751,306.689-179.751,306.689c-10.503,8.617-27.692,8.617-38.195,0
	c0,0-179.751-147.464-179.751-306.689C8.152,230.027,97.18,141,207,141S405.848,230.027,405.848,339.848z"/>
<path style="fill:#FFE1D6;" d="M207,477.897c-76.121,0-138.048-61.929-138.048-138.048S130.881,201.8,207,201.8
	s138.048,61.929,138.048,138.048S283.121,477.897,207,477.897z"/>
<path style="fill:#EE3840;" d="M206.914,425.119c48.706-35.004,73.065-67.035,84.513-91.452
	c13.384-28.546,1.742-63.926-27.456-75.797c-34.317-13.943-57.058,18.235-57.058,18.235s-22.555-32.272-56.875-18.309
	c-29.21,11.867-40.852,47.251-27.467,75.793C134.032,358.01,158.224,390.115,206.914,425.119L206.914,425.119z M206.914,425.119"/>
</svg>
