<?xml version="1.0" encoding="iso-8859-1"?>
<!-- Generator: Adobe Illustrator 19.0.0, SVG Export Plug-In . SVG Version: 6.00 Build 0)  -->
<svg version="1.1" id="Capa_1" xmlns="http://www.w3.org/2000/svg" xmlns:xlink="http://www.w3.org/1999/xlink" x="0px" y="0px"
	 viewBox="0 0 512.001 512.001" style="enable-background:new 0 0 512.001 512.001;" xml:space="preserve">
<g>
	<g>
		<path d="M442.181,310.306h-21.512c18.526-29.194,29.269-63.791,29.269-100.853C449.94,105.366,365.26,20.686,261.173,20.686
			S72.405,105.366,72.405,209.454c0,37.062,10.743,71.659,29.269,100.853H80.163c-3.201,0-6.073,1.966-7.232,4.949
			c-1.158,2.985-0.365,6.374,1.997,8.533l181.01,165.495c1.482,1.355,3.358,2.032,5.234,2.032c1.876,0,3.752-0.678,5.234-2.032
			l181.01-165.495c2.363-2.16,3.156-5.548,1.997-8.533C448.254,312.272,445.382,310.306,442.181,310.306z M87.92,209.454
			c0-95.532,77.721-173.253,173.253-173.253s173.253,77.721,173.253,173.253c0,95.531-77.721,173.253-173.253,173.253
			S87.92,304.986,87.92,209.454z M261.173,473.046L100.144,325.821h12.494c34.587,44.051,88.313,72.4,148.535,72.4
			c60.222,0,113.947-28.348,148.535-72.4h12.494L261.173,473.046z"/>
	</g>
</g>
<g>
	<g>
		<path d="M377.918,160.127c-6.382-15.081-15.515-28.63-27.152-40.267c-11.636-11.636-25.186-20.77-40.267-27.152
			c-15.629-6.609-32.22-9.961-49.328-9.961h-0.011c-9.764,0-19.487,1.117-28.92,3.32c-9.175,2.14-18.111,5.326-26.572,9.453
			c-21.028,10.251-38.798,26.127-51.407,45.904c-12.95,20.304-19.797,43.825-19.797,68.029c0,9.619,1.086,19.218,3.227,28.527
			c2.089,9.051,5.182,17.894,9.206,26.262c1.283,2.68,4.034,4.408,6.992,4.408c1.169,0,2.296-0.259,3.351-0.776
			c3.858-1.851,5.492-6.495,3.641-10.343c0-0.01,0-0.01-0.011-0.01c-3.527-7.354-6.237-15.091-8.058-23.024
			c-1.882-8.151-2.834-16.581-2.834-25.041c0-21.235,5.999-41.881,17.367-59.703c11.057-17.335,26.665-31.278,45.128-40.287
			c7.426-3.631,15.267-6.413,23.304-8.296c8.265-1.923,16.808-2.906,25.393-2.906c15.029,0,29.582,2.937,43.287,8.729
			c13.219,5.596,25.114,13.612,35.344,23.831c10.219,10.23,18.235,22.125,23.831,35.343c5.792,13.705,8.73,28.269,8.73,43.288
			c0,15.018-2.938,29.582-8.73,43.277c-5.596,13.229-13.612,25.124-23.831,35.344c-10.23,10.219-22.125,18.235-35.344,23.831
			c-13.705,5.792-28.268,8.74-43.287,8.74c-8.306,0-16.581-0.921-24.597-2.731c-7.809-1.758-15.432-4.385-22.673-7.788
			c-7.116-3.341-13.891-7.469-20.159-12.258c-6.217-4.748-11.957-10.178-17.057-16.125c-1.479-1.727-3.63-2.72-5.896-2.72
			c-1.851,0-3.641,0.662-5.047,1.872c-3.248,2.783-3.63,7.686-0.848,10.933c5.803,6.775,12.329,12.951,19.425,18.37
			c7.137,5.452,14.864,10.148,22.973,13.964c8.254,3.89,16.953,6.869,25.838,8.886c9.144,2.058,18.577,3.113,28.021,3.113h0.021
			c17.108,0,33.698-3.351,49.328-9.961c15.081-6.382,28.63-15.515,40.267-27.152c11.636-11.636,20.77-25.187,27.152-40.278
			c6.61-15.618,9.961-32.209,9.961-49.317C387.879,192.348,384.527,175.757,377.918,160.127z"/>
	</g>
</g>
<g>
	<g>
		<path d="M59.476,82.748c-4.284,0-7.758,3.473-7.758,7.758v33.618H41.375v-33.62c0-4.285-3.473-7.758-7.758-7.758
			c-4.284,0-7.758,3.473-7.758,7.758v33.62H15.515V90.506c0-4.285-3.473-7.758-7.758-7.758C3.473,82.748,0,86.22,0,90.506v56.889
			c0,15.867,11.052,29.19,25.86,32.703V328.4c0,4.285,3.473,7.758,7.758,7.758c4.284,0,7.758-3.473,7.758-7.758V180.098
			c14.807-3.513,25.859-16.837,25.859-32.703V90.506C67.233,86.22,63.76,82.748,59.476,82.748z M51.718,147.395
			c0,9.981-8.12,18.101-18.101,18.101s-18.102-8.12-18.102-18.101v-7.756h36.203V147.395z"/>
	</g>
</g>
<g>
	<g>
		<path d="M473.212,82.748c-4.284,0-7.758,3.473-7.758,7.758V328.4c0,4.285,3.473,7.758,7.758,7.758
			c4.284,0,7.758-3.473,7.758-7.758V212.04h23.273c4.284,0,7.758-3.473,7.758-7.758v-82.747
			C512,100.149,494.6,82.748,473.212,82.748z M496.485,196.525H480.97V99.598c9.029,3.203,15.515,11.825,15.515,21.938V196.525z"/>
	</g>
</g>
<g>
	<g>
		<path d="M322.36,159.809c-8.901-8.909-20.74-13.815-33.335-13.815c-10.156,0-19.818,3.189-27.844,9.095
			c-8.034-5.906-17.701-9.095-27.857-9.095c-12.596,0-24.435,4.906-33.335,13.812c-18.377,18.377-18.377,48.285,0.001,66.673
			l55.709,55.695c1.515,1.514,3.5,2.272,5.485,2.272s3.971-0.758,5.486-2.273l55.69-55.696
			C340.733,208.09,340.733,178.183,322.36,159.809z M311.387,215.508l-50.204,50.209l-50.222-50.208
			c-12.33-12.336-12.331-32.403,0-44.733c5.972-5.976,13.914-9.267,22.363-9.267c8.45,0,16.397,3.291,22.375,9.269
			c1.455,1.455,3.428,2.272,5.485,2.272c0.001,0,0.002,0,0.003,0c2.058-0.001,4.032-0.819,5.486-2.276
			c5.966-5.975,13.904-9.265,22.352-9.265c8.449,0,16.389,3.291,22.362,9.268C323.715,183.105,323.714,203.173,311.387,215.508z"/>
	</g>
</g>
<g>
</g>
<g>
</g>
<g>
</g>
<g>
</g>
<g>
</g>
<g>
</g>
<g>
</g>
<g>
</g>
<g>
</g>
<g>
</g>
<g>
</g>
<g>
</g>
<g>
</g>
<g>
</g>
<g>
</g>
</svg>
